<?xml version="1.0" encoding="UTF-8"?>
<svg version="1.1" xmlns="http://www.w3.org/2000/svg" width="500" height="109">
<path d="M0 0 C5.61 0 11.22 0 17 0 C23.05299359 12.82760742 28.85081816 25.53809253 33.32177734 39.00439453 C34.51328922 42.51030456 35.81870511 45.97304958 37.125 49.4375 C37.49915039 50.43281738 37.49915039 50.43281738 37.88085938 51.44824219 C39.59669186 55.98947883 41.38008173 60.49960655 43.23828125 64.984375 C43.99425317 66.98479302 44.61124699 68.89616017 45 71 C44 72 44 72 40.18359375 72.09765625 C38.60153318 72.09098089 37.01948841 72.07901875 35.4375 72.0625 C34.63119141 72.05798828 33.82488281 72.05347656 32.99414062 72.04882812 C30.99606244 72.03700518 28.99802217 72.01906914 27 72 C24.33350027 66.93365052 22.6132994 62.64654789 21 57 C12.42 57.33 3.84 57.66 -5 58 C-5.639375 60.124375 -6.27875 62.24875 -6.9375 64.4375 C-8.875 70.875 -8.875 70.875 -10 72 C-12.86267567 72.07325168 -15.700719 72.09238205 -18.5625 72.0625 C-19.36880859 72.05798828 -20.17511719 72.05347656 -21.00585938 72.04882812 C-23.00393756 72.03700518 -25.00197783 72.01906914 -27 72 C-26.36904229 65.43061675 -24.35826236 59.48177551 -22.25 53.25 C-21.91484375 52.2290625 -21.5796875 51.208125 -21.234375 50.15625 C-19.19889343 44.08064592 -16.85736437 38.27253004 -14.14257812 32.46972656 C-12.66408883 29.27391508 -11.39257736 26.03520049 -10.125 22.75 C-7.08978131 14.99569548 -3.58000913 7.51801917 0 0 Z M7 20 C5.82569926 23.2681432 4.66188744 26.53992515 3.5 29.8125 C2.99919922 31.2056543 2.99919922 31.2056543 2.48828125 32.62695312 C2.17246094 33.51962891 1.85664062 34.41230469 1.53125 35.33203125 C1.23798828 36.15421143 0.94472656 36.9763916 0.64257812 37.82348633 C-0.14157525 40.10130654 -0.14157525 40.10130654 0 43 C5.61 43 11.22 43 17 43 C14.89379589 35.46200635 12.50474634 28.02105949 9 21 C8.34 20.67 7.68 20.34 7 20 Z " fill="#FCFDFD" transform="translate(51,15)"/>
<path d="M0 0 C5.48554421 3.4314858 8.82934684 8.46633362 11.3125 14.375 C11.80922384 17.30876431 11.95613049 20.21675155 12.0625 23.1875 C12.10503906 23.96287109 12.14757812 24.73824219 12.19140625 25.53710938 C12.28325886 27.48132297 12.30406505 29.42863614 12.3125 31.375 C11.3125 32.375 11.3125 32.375 8.16967773 32.48852539 C6.77847303 32.48836633 5.38726239 32.48267506 3.99609375 32.47265625 C3.26503922 32.4712413 2.53398468 32.46982635 1.78077698 32.46836853 C-0.56285632 32.46275408 -2.90639539 32.45019922 -5.25 32.4375 C-6.83528508 32.43248686 -8.42057166 32.42792363 -10.00585938 32.42382812 C-13.8997761 32.41277997 -17.79362205 32.39550572 -21.6875 32.375 C-19.03251484 37.24645926 -17.07183166 38.69791309 -11.6875 40.375 C-5.15582382 40.91930635 0.92112653 39.69087101 7.3125 38.375 C7.649111 40.14521322 7.98167293 41.91619674 8.3125 43.6875 C8.5909375 45.16669922 8.5909375 45.16669922 8.875 46.67578125 C9.3125 49.375 9.3125 49.375 9.3125 52.375 C-0.78093626 56.63554596 -14.12027673 57.51570378 -24.5 53.6875 C-28.33841002 51.82464471 -31.04551504 49.72151428 -33.6875 46.375 C-33.6875 45.715 -33.6875 45.055 -33.6875 44.375 C-34.3475 44.375 -35.0075 44.375 -35.6875 44.375 C-39.99064648 34.61607851 -41.41779092 25.94526244 -38.125 15.625 C-35.20902499 8.53457655 -30.43749203 2.14896911 -23.25390625 -1 C-16.08463067 -2.7459423 -6.81320946 -3.08865496 0 0 Z M-20.6875 16.375 C-21.0175 18.025 -21.3475 19.675 -21.6875 21.375 C-15.7475 21.375 -9.8075 21.375 -3.6875 21.375 C-4.69920179 15.77356716 -4.69920179 15.77356716 -8.6875 12.375 C-13.86408067 11.32267662 -17.58370172 11.78137854 -20.6875 16.375 Z " fill="#FCFDFD" transform="translate(391.6875,32.625)"/>
<path d="M0 0 C4.05350531 4.05350531 6.08460183 8.92984744 6.32910156 14.63867188 C6.32847768 16.37382682 6.30644135 18.10907508 6.265625 19.84375 C6.25996521 20.76466431 6.25430542 21.68557861 6.24847412 22.63439941 C6.22625236 25.54848307 6.17608383 28.46129397 6.125 31.375 C6.1049166 33.36196129 6.08666906 35.34894204 6.0703125 37.3359375 C6.0264343 42.18277499 5.95750689 47.02867242 5.875 51.875 C-1.35878541 53.09048746 -8.4643406 54.25007557 -15.8125 54.1875 C-16.53018555 54.18186035 -17.24787109 54.1762207 -17.98730469 54.17041016 C-24.31260487 54.02632912 -30.67567959 53.65909433 -35.765625 49.55078125 C-39.27443475 45.70923954 -41.08843749 41.67203188 -41.15625 36.484375 C-40.82397702 30.93541631 -39.89502258 27.16863682 -36.125 22.875 C-29.55164311 17.61631448 -20.21148877 17.24734834 -12.125 17.875 C-11.135 18.205 -10.145 18.535 -9.125 18.875 C-9.89979736 15.88347418 -9.89979736 15.88347418 -11.125 12.875 C-14.57702465 11.72432512 -17.30118272 11.74225492 -20.9375 11.75 C-22.14019531 11.74742188 -23.34289062 11.74484375 -24.58203125 11.7421875 C-28.55521263 11.81583169 -28.55521263 11.81583169 -34.125 12.875 C-34.785 8.585 -35.445 4.295 -36.125 -0.125 C-27.07790587 -6.15639609 -9.28392035 -4.91501665 0 0 Z M-22.9921875 31.2265625 C-24.5849956 33.54437291 -24.47727814 35.12723052 -24.125 37.875 C-22.23653817 40.20366229 -22.23653817 40.20366229 -19.0859375 40.0703125 C-17.90257812 40.04710937 -16.71921875 40.02390625 -15.5 40 C-14.31148437 39.98195313 -13.12296875 39.96390625 -11.8984375 39.9453125 C-10.98320312 39.92210937 -10.06796875 39.89890625 -9.125 39.875 C-9.125 36.575 -9.125 33.275 -9.125 29.875 C-11.06181161 29.79392417 -12.9995934 29.73577525 -14.9375 29.6875 C-16.01644531 29.65269531 -17.09539062 29.61789063 -18.20703125 29.58203125 C-21.1113157 29.62678299 -21.1113157 29.62678299 -22.9921875 31.2265625 Z " fill="#FCFDFD" transform="translate(203.125,34.125)"/>
<path d="M0 0 C0.8559375 -0.02900391 1.711875 -0.05800781 2.59375 -0.08789062 C8.83371907 -0.14934487 13.91174708 0.96775413 19.25 4.3125 C24.93128296 10.12717398 26.47816724 16.97659515 26.47659302 24.89927673 C26.46627045 25.69435135 26.45594788 26.48942596 26.4453125 27.30859375 C26.4424826 28.14213882 26.43965271 28.9756839 26.43673706 29.83448792 C26.42562289 32.4731436 26.40053515 35.11144848 26.375 37.75 C26.36495885 39.54882319 26.35583499 41.34765175 26.34765625 43.14648438 C26.32571235 47.53528955 26.29124387 51.92383548 26.25 56.3125 C23.60409986 56.33934679 20.95846904 56.35926357 18.3125 56.375 C17.55775391 56.38337891 16.80300781 56.39175781 16.02539062 56.40039062 C14.10005687 56.40902441 12.17464419 56.36474333 10.25 56.3125 C8.25951174 54.32201174 9.01810776 50.39459392 8.96875 47.6640625 C8.95034058 46.8957309 8.93193115 46.12739929 8.91296387 45.33578491 C8.85403699 42.86977005 8.80131889 40.40368423 8.75 37.9375 C8.68234913 34.70037404 8.60861445 31.46346916 8.53125 28.2265625 C8.51767456 27.47960114 8.50409912 26.73263977 8.4901123 25.96304321 C8.41505737 22.83257414 8.24698208 20.30344624 7.25 17.3125 C3.74152482 14.57289974 3.74152482 14.57289974 -3.75 15.3125 C-4.08 28.8425 -4.41 42.3725 -4.75 56.3125 C-10.03 56.3125 -15.31 56.3125 -20.75 56.3125 C-20.75 38.8225 -20.75 21.3325 -20.75 3.3125 C-13.48443882 0.89064627 -7.57947788 0.08409184 0 0 Z " fill="#FDFEFD" transform="translate(242.75,30.6875)"/>
<path d="M0 0 C0 4.95 0 9.9 0 15 C5.94 15 11.88 15 18 15 C18 19.62 18 24.24 18 29 C12.06 29 6.12 29 0 29 C0.11432742 32.37566752 0.24107541 35.75010035 0.375 39.125 C0.4059375 40.07632813 0.436875 41.02765625 0.46875 42.0078125 C0.67747046 47.01710348 1.05505365 51.30366613 3 56 C8.15171623 56.09038099 12.91913204 55.84681133 18 55 C20.3992233 59.64849515 20.19957409 63.91086074 20 69 C11.61818475 71.6295891 2.3325113 72.7135688 -6 69.375 C-10.03961275 67.24030556 -12.58524896 64.95141079 -15 61 C-17.14215254 53.86255998 -17.270099 46.69600168 -17.1953125 39.3046875 C-17.1924826 38.23123077 -17.18965271 37.15777405 -17.18673706 36.05178833 C-17.17563822 32.65940695 -17.15055314 29.26730013 -17.125 25.875 C-17.11495688 23.55989968 -17.10583338 21.24479517 -17.09765625 18.9296875 C-17.07573273 13.28636636 -17.04235932 7.6432028 -17 2 C-16.33613281 1.86722656 -15.67226563 1.73445313 -14.98828125 1.59765625 C-13.66376953 1.33275391 -13.66376953 1.33275391 -12.3125 1.0625 C-9.65625 0.53125 -9.65625 0.53125 -7 0 C-6.10667969 -0.20753906 -5.21335937 -0.41507813 -4.29296875 -0.62890625 C-2 -1 -2 -1 0 0 Z " fill="#FAFDFB" transform="translate(326,17)"/>
<path d="M0 0 C0.66 0 1.32 0 2 0 C3.5078125 1.6796875 3.5078125 1.6796875 5.125 3.875 C5.66382813 4.59429688 6.20265625 5.31359375 6.7578125 6.0546875 C8 8 8 8 8 10 C8.66 10 9.32 10 10 10 C11.41015625 11.46875 11.41015625 11.46875 13.0625 13.5 C16.4592511 17.55742996 20.21188342 20.79053392 24.375 24.04296875 C26 26 26 26 25.87890625 28.53125 C24.73797078 31.73601096 22.98170099 34.25118894 21 37 C16 35 16 35 8 27 C7.67 49.44 7.34 71.88 7 95 C3.04 95 -0.92 95 -5 95 C-5.33 72.56 -5.66 50.12 -6 27 C-7.65 28.65 -9.3 30.3 -11 32 C-16.4691358 37 -16.4691358 37 -19 37 C-19.83848804 35.54462432 -20.67063934 34.08559627 -21.5 32.625 C-21.9640625 31.81289063 -22.428125 31.00078125 -22.90625 30.1640625 C-24 28 -24 28 -24 26 C-22.49609375 24.51953125 -22.49609375 24.51953125 -20.4375 22.8125 C-13.20171782 16.6176549 -7.44793828 10.13609242 -1.91796875 2.37890625 C-1.28503906 1.59386719 -0.65210938 0.80882813 0 0 Z " fill="#FCFDFD" transform="translate(457,0)"/>
<path d="M0 0 C0.01030746 0.78482758 0.02061493 1.56965515 0.03123474 2.37826538 C0.12910777 9.76522328 0.23160753 17.15209546 0.33933926 24.53891563 C0.39456444 28.33678642 0.44798378 32.1346649 0.49731445 35.93261719 C0.54496401 39.59607367 0.597307 43.25943546 0.65294075 46.92277908 C0.67336163 48.32222773 0.69207517 49.72170235 0.70907402 51.12119675 C0.73312361 53.07744014 0.76374122 55.03359949 0.79467773 56.98974609 C0.81799416 58.66186661 0.81799416 58.66186661 0.84178162 60.36776733 C0.82581145 62.97890829 0.82581145 62.97890829 2 65 C3.98 65.66 5.96 66.32 8 67 C7.34 71.62 6.68 76.24 6 81 C-1.23334659 81 -7.52386766 80.52019595 -13.5 76.1875 C-16.71461099 71.49952564 -17.24841545 66.83643183 -17.22705078 61.26025391 C-17.22748886 60.29333618 -17.22748886 60.29333618 -17.22793579 59.30688477 C-17.22655315 57.19663577 -17.21104311 55.08674908 -17.1953125 52.9765625 C-17.19157856 51.50540357 -17.18873339 50.03424215 -17.18673706 48.56307983 C-17.17913056 44.70628902 -17.159508 40.84965079 -17.1373291 36.99291992 C-17.11680613 33.05129052 -17.10772159 29.10963627 -17.09765625 25.16796875 C-17.07625903 17.44524323 -17.04215949 9.72264306 -17 2 C-11.23918159 0.7017874 -5.91260345 -0.25706972 0 0 Z " fill="#FBFEFD" transform="translate(151,7)"/>
<path d="M0 0 C0.01030746 0.74058151 0.02061493 1.48116302 0.03123474 2.2441864 C0.12932451 9.23287308 0.23185497 16.22147732 0.33933926 23.21002483 C0.39443855 26.80266543 0.44783721 30.39531434 0.49731445 33.98803711 C0.54515039 37.45699185 0.5974991 40.92585214 0.65294075 44.39469337 C0.68315603 46.35827285 0.70873098 48.32192195 0.73423767 50.28556824 C0.75418289 51.4864357 0.77412811 52.68730316 0.79467773 53.92456055 C0.81799416 55.50674629 0.81799416 55.50674629 0.84178162 57.12089539 C0.99139483 59.84341155 1.39029702 62.34640658 2 65 C4.31 65.66 6.62 66.32 9 67 C8.43393721 71.69023454 7.81462495 76.34500026 7 81 C-0.06136952 81.45072571 -5.94442829 79.95036492 -11.9375 76.125 C-15.95277085 71.98805427 -16.24814728 67.88310374 -16.22705078 62.28198242 C-16.22734283 61.62776306 -16.22763489 60.9735437 -16.22793579 60.29949951 C-16.22654982 58.15135121 -16.21102371 56.00355596 -16.1953125 53.85546875 C-16.19157975 52.3604603 -16.18873402 50.8654494 -16.18673706 49.37043762 C-16.17912118 45.44622986 -16.15949041 41.52217145 -16.1373291 37.59802246 C-16.11682649 33.5894574 -16.10772592 29.58086807 -16.09765625 25.57226562 C-16.07624245 17.71477541 -16.04213138 9.85740631 -16 2 C-14.45998293 1.65912666 -12.91787594 1.32769047 -11.375 1 C-10.08722656 0.7215625 -10.08722656 0.7215625 -8.7734375 0.4375 C-5.80730995 -0.03039618 -2.99792667 -0.07033259 0 0 Z " fill="#F9FEFC" transform="translate(118,7)"/>
<path d="M0 0 C5.28 0 10.56 0 16 0 C16 18.15 16 36.3 16 55 C10.72 55 5.44 55 0 55 C0 36.85 0 18.7 0 0 Z " fill="#FDFEFD" transform="translate(281,32)"/>
<path d="M0 0 C0.8559375 -0.02900391 1.711875 -0.05800781 2.59375 -0.08789062 C8.83371907 -0.14934487 13.91174708 0.96775413 19.25 4.3125 C24.93128296 10.12717398 26.47816724 16.97659515 26.47659302 24.89927673 C26.46627045 25.69435135 26.45594788 26.48942596 26.4453125 27.30859375 C26.4424826 28.14213882 26.43965271 28.9756839 26.43673706 29.83448792 C26.42562289 32.4731436 26.40053515 35.11144848 26.375 37.75 C26.36495885 39.54882319 26.35583499 41.34765175 26.34765625 43.14648438 C26.32571235 47.53528955 26.29124387 51.92383548 26.25 56.3125 C23.60409986 56.33934679 20.95846904 56.35926357 18.3125 56.375 C17.55775391 56.38337891 16.80300781 56.39175781 16.02539062 56.40039062 C14.10005687 56.40902441 12.17464419 56.36474333 10.25 56.3125 C9.25 55.3125 9.25 55.3125 9.13647461 51.98608398 C9.13663371 50.51024444 9.14232686 49.03439931 9.15234375 47.55859375 C9.1537587 46.78314713 9.15517365 46.0077005 9.15663147 45.20875549 C9.16224655 42.72246506 9.17480154 40.2362634 9.1875 37.75 C9.19251306 36.06836067 9.1970763 34.38671994 9.20117188 32.70507812 C9.21222087 28.57418434 9.22949555 24.44335724 9.25 20.3125 C11.25 22.3125 11.25 22.3125 11.47705078 25.47705078 C11.47673389 26.82067963 11.46542181 28.1643341 11.4453125 29.5078125 C11.4424826 30.21525604 11.43965271 30.92269958 11.43673706 31.65158081 C11.42553137 33.9137251 11.40042679 36.17547515 11.375 38.4375 C11.36497067 39.97004637 11.35584474 41.50259894 11.34765625 43.03515625 C11.32559086 46.79442301 11.29105896 50.55339464 11.25 54.3125 C15.54 54.3125 19.83 54.3125 24.25 54.3125 C24.18055081 49.36817828 24.09231661 44.42465672 23.98754883 39.48095703 C23.95453704 37.80331387 23.92643324 36.12556598 23.90356445 34.44775391 C23.77181262 21.10884396 23.77181262 21.10884396 20.25 8.3125 C19.59 8.3125 18.93 8.3125 18.25 8.3125 C18.25 7.6525 18.25 6.9925 18.25 6.3125 C17.30125 6.003125 16.3525 5.69375 15.375 5.375 C12.25 4.3125 12.25 4.3125 10.25 3.3125 C8.75238238 3.21709888 7.25065172 3.18176514 5.75 3.1796875 C4.863125 3.17839844 3.97625 3.17710938 3.0625 3.17578125 C2.134375 3.17964844 1.20625 3.18351562 0.25 3.1875 C-0.678125 3.18363281 -1.60625 3.17976563 -2.5625 3.17578125 C-3.8928125 3.17771484 -3.8928125 3.17771484 -5.25 3.1796875 C-6.47203125 3.18137939 -6.47203125 3.18137939 -7.71875 3.18310547 C-9.81850952 3.18448497 -9.81850952 3.18448497 -11.75 4.3125 C-14.39 4.3125 -17.03 4.3125 -19.75 4.3125 C-19.42 20.4825 -19.09 36.6525 -18.75 53.3125 C-14.79 53.6425 -10.83 53.9725 -6.75 54.3125 C-6.75 41.4425 -6.75 28.5725 -6.75 15.3125 C-6.09 15.3125 -5.43 15.3125 -4.75 15.3125 C-4.75 28.8425 -4.75 42.3725 -4.75 56.3125 C-10.03 56.3125 -15.31 56.3125 -20.75 56.3125 C-20.75 38.8225 -20.75 21.3325 -20.75 3.3125 C-13.48443882 0.89064627 -7.57947788 0.08409184 0 0 Z " fill="#E8FCF4" transform="translate(242.75,30.6875)"/>
<path d="M0 0 C5.38416609 3.36806865 9.10685294 8.45457895 11.3125 14.375 C11.54056869 17.39443114 11.49374535 20.35424409 11.3125 23.375 C10.6525 23.045 9.9925 22.715 9.3125 22.375 C9.3125 19.735 9.3125 17.095 9.3125 14.375 C8.6525 14.375 7.9925 14.375 7.3125 14.375 C7.3125 12.725 7.3125 11.075 7.3125 9.375 C6.6525 9.375 5.9925 9.375 5.3125 9.375 C4.755625 8.59125 4.19875 7.8075 3.625 7 C0.76476918 3.7532515 -1.52378063 3.25578679 -5.6875 2.375 C-5.6875 1.715 -5.6875 1.055 -5.6875 0.375 C-15.37364622 0.52656132 -22.87617284 1.17915823 -30.2734375 7.79296875 C-35.61602163 13.55245973 -36.01634406 20.56237664 -35.9375 28 C-35.94523437 28.73734375 -35.95296875 29.4746875 -35.9609375 30.234375 C-35.94613835 34.36333687 -35.71635044 37.73659487 -33.6875 41.375 C-32.6975 42.035 -31.7075 42.695 -30.6875 43.375 C-30.6875 44.695 -30.6875 46.015 -30.6875 47.375 C-30.06101562 47.56835938 -29.43453125 47.76171875 -28.7890625 47.9609375 C-27.56316406 48.35152344 -27.56316406 48.35152344 -26.3125 48.75 C-25.09433594 49.13285156 -25.09433594 49.13285156 -23.8515625 49.5234375 C-21.6875 50.375 -21.6875 50.375 -19.6875 52.375 C-16.99910615 52.64491906 -14.39608064 52.46237357 -11.6875 52.375 C-11.6875 53.035 -11.6875 53.695 -11.6875 54.375 C-10.78 54.065625 -9.8725 53.75625 -8.9375 53.4375 C-3.64243464 51.89810987 1.83475363 51.71679698 7.3125 51.375 C7.3125 50.715 7.3125 50.055 7.3125 49.375 C6.3225 49.045 5.3325 48.715 4.3125 48.375 C4.6425 46.065 4.9725 43.755 5.3125 41.375 C2.85343963 41.85065766 0.39529007 42.33036052 -2.0625 42.8125 C-2.76117188 42.94720703 -3.45984375 43.08191406 -4.1796875 43.22070312 C-8.04378734 43.9522422 -8.04378734 43.9522422 -11.6875 45.375 C-12.0175 44.715 -12.3475 44.055 -12.6875 43.375 C-15.00729381 42.34398053 -17.34179915 41.34563483 -19.6875 40.375 C-20.6775 39.715 -21.6675 39.055 -22.6875 38.375 C-22.875 35.75 -22.875 35.75 -22.6875 33.375 C-21.800625 34.15875 -20.91375 34.9425 -20 35.75 C-14.84058412 39.99539348 -10.33787217 40.95329323 -3.6875 40.375 C0.00157033 39.8104457 3.65744247 39.12751184 7.3125 38.375 C7.649111 40.14521322 7.98167293 41.91619674 8.3125 43.6875 C8.5909375 45.16669922 8.5909375 45.16669922 8.875 46.67578125 C9.3125 49.375 9.3125 49.375 9.3125 52.375 C-0.78093626 56.63554596 -14.12027673 57.51570378 -24.5 53.6875 C-28.33841002 51.82464471 -31.04551504 49.72151428 -33.6875 46.375 C-33.6875 45.715 -33.6875 45.055 -33.6875 44.375 C-34.3475 44.375 -35.0075 44.375 -35.6875 44.375 C-39.99064648 34.61607851 -41.41779092 25.94526244 -38.125 15.625 C-35.20902499 8.53457655 -30.43749203 2.14896911 -23.25390625 -1 C-16.08463067 -2.7459423 -6.81320946 -3.08865496 0 0 Z " fill="#EAFDF5" transform="translate(391.6875,32.625)"/>
<path d="M0 0 C5.61 0 11.22 0 17 0 C23.05299359 12.82760742 28.85081816 25.53809253 33.32177734 39.00439453 C34.51328922 42.51030456 35.81870511 45.97304958 37.125 49.4375 C37.49915039 50.43281738 37.49915039 50.43281738 37.88085938 51.44824219 C39.59669186 55.98947883 41.38008173 60.49960655 43.23828125 64.984375 C43.99425317 66.98479302 44.61124699 68.89616017 45 71 C44 72 44 72 40.18359375 72.09765625 C38.60153318 72.09098089 37.01948841 72.07901875 35.4375 72.0625 C34.63119141 72.05798828 33.82488281 72.05347656 32.99414062 72.04882812 C30.99606244 72.03700518 28.99802217 72.01906914 27 72 C26.32591692 70.73308493 25.66099503 69.46129251 25 68.1875 C24.62875 67.47980469 24.2575 66.77210937 23.875 66.04296875 C23 64 23 64 23 61 C23.99 61 24.98 61 26 61 C26.66 63.64 27.32 66.28 28 69 C32.29 69.33 36.58 69.66 41 70 C40.505 65.545 40.505 65.545 40 61 C39.34 61 38.68 61 38 61 C37.80365967 60.39526855 37.60731934 59.79053711 37.4050293 59.16748047 C36.50402484 56.40171715 35.59582868 53.63836614 34.6875 50.875 C34.37876953 49.92367187 34.07003906 48.97234375 33.75195312 47.9921875 C32.14030102 43.1063369 30.39097374 38.56956872 28 34 C27.20709938 31.76446076 26.52405108 29.51781342 25.84375 27.24609375 C25.04450619 24.90990255 25.04450619 24.90990255 23.56640625 22.62890625 C21.80547351 19.67352536 20.63824502 16.72206188 19.4375 13.5 C19.02371094 12.3965625 18.60992187 11.293125 18.18359375 10.15625 C17.59771484 8.59390625 17.59771484 8.59390625 17 7 C16.34 5.35 15.68 3.7 15 2 C10.71 2 6.42 2 2 2 C1.34 3.98 0.68 5.96 0 8 C-0.73047002 9.3763593 -1.50073142 10.73246874 -2.3125 12.0625 C-5.11139263 16.92941715 -7.0413937 22.02022663 -8.984375 27.27734375 C-10 30 -10 30 -11 32 C-11.66 32 -12.32 32 -13 32 C-11.05771677 24.84563526 -8.49297884 18.2187415 -5.375 11.5 C-4.76398437 10.16195313 -4.76398437 10.16195313 -4.140625 8.796875 C-1.35993304 2.71986607 -1.35993304 2.71986607 0 0 Z " fill="#EAFDF5" transform="translate(51,15)"/>
<path d="M0 0 C2.9375 2.4375 2.9375 2.4375 5 5 C5.33 5.33 5.66 5.66 6 6 C6.42738971 13.55055147 6.42738971 13.55055147 4 17 C-0.24738566 19.83159044 -4.0156387 19.63734456 -9 19 C-11.80664993 17.35708297 -12.60644452 16.22497402 -13.58984375 13.1640625 C-14.41285472 9.07252223 -14.18977034 7.35990927 -12.1875 3.5625 C-8.74232926 -0.47327143 -5.14301428 -0.91628415 0 0 Z " fill="#F9FDFB" transform="translate(293,8)"/>
<path d="M0 0 C0 4.29 0 8.58 0 13 C-0.33 13 -0.66 13 -1 13 C-1.33 9.7 -1.66 6.4 -2 3 C-7.94 3.495 -7.94 3.495 -14 4 C-14.02484053 10.38630901 -14.04292633 16.77258948 -14.05493164 23.15893555 C-14.05994003 25.32853689 -14.06674863 27.49813489 -14.07543945 29.66772461 C-14.08765876 32.79802274 -14.0932634 35.928276 -14.09765625 39.05859375 C-14.10281754 40.01833603 -14.10797882 40.97807831 -14.11329651 41.96690369 C-14.11376923 47.72653655 -13.73941254 53.28682284 -13 59 C-12.34 59 -11.68 59 -11 59 C-11 60.32 -11 61.64 -11 63 C-10.34 63 -9.68 63 -9 63 C-8.24976563 63.95132813 -8.24976563 63.95132813 -7.484375 64.921875 C-3.75375599 68.04245568 0.01568691 67.91433231 4.75 68.25 C5.63816406 68.32734375 6.52632813 68.4046875 7.44140625 68.484375 C9.62678897 68.67236491 11.81216498 68.84363527 14 69 C11.28554723 71.71445277 9.72808562 71.33066567 5.9375 71.375 C-1.90948473 71.23626878 -7.08487415 69.60500608 -12.9375 64.375 C-17.55919475 56.81222677 -17.28262916 47.93438503 -17.1953125 39.3046875 C-17.1924826 38.23123077 -17.18965271 37.15777405 -17.18673706 36.05178833 C-17.17563822 32.65940695 -17.15055314 29.26730013 -17.125 25.875 C-17.11495688 23.55989968 -17.10583338 21.24479517 -17.09765625 18.9296875 C-17.07573273 13.28636636 -17.04235932 7.6432028 -17 2 C-16.33613281 1.86722656 -15.67226563 1.73445313 -14.98828125 1.59765625 C-13.66376953 1.33275391 -13.66376953 1.33275391 -12.3125 1.0625 C-9.65625 0.53125 -9.65625 0.53125 -7 0 C-6.10667969 -0.20753906 -5.21335937 -0.41507813 -4.29296875 -0.62890625 C-2 -1 -2 -1 0 0 Z " fill="#EDFCF6" transform="translate(326,17)"/>
<path d="M0 0 C4.01568767 4.01568767 6.08130381 8.88741883 6.32910156 14.546875 C6.32847803 16.23971546 6.30646351 17.9326521 6.265625 19.625 C6.25996521 20.52371826 6.25430542 21.42243652 6.24847412 22.34838867 C6.22625919 25.19115708 6.17609249 28.03261895 6.125 30.875 C6.10491569 32.81378375 6.08666832 34.75258746 6.0703125 36.69140625 C6.02644346 41.41976669 5.95752133 46.1471626 5.875 50.875 C5.545 50.875 5.215 50.875 4.875 50.875 C3.68111597 21.52958453 3.68111597 21.52958453 3.875 9.875 C2.885 10.205 1.895 10.535 0.875 10.875 C0.66875 9.59625 0.4625 8.3175 0.25 7 C-0.21398535 4.79475694 -0.21398535 4.79475694 -1.125 2.875 C-4.08495431 1.33173719 -4.08495431 1.33173719 -7.125 0.875 C-7.455 0.545 -7.785 0.215 -8.125 -0.125 C-10.05167507 -0.21248207 -11.98151861 -0.23197334 -13.91015625 -0.22265625 C-15.07998047 -0.21943359 -16.24980469 -0.21621094 -17.45507812 -0.21289062 C-19.30262695 -0.20032227 -19.30262695 -0.20032227 -21.1875 -0.1875 C-22.42306641 -0.18298828 -23.65863281 -0.17847656 -24.93164062 -0.17382812 C-27.99614117 -0.16199608 -31.06054721 -0.14551173 -34.125 -0.125 C-33.795 0.6175 -33.465 1.36 -33.125 2.125 C-32.125 4.875 -32.125 4.875 -32.125 8.875 C-26.185 8.875 -20.245 8.875 -14.125 8.875 C-14.125 9.535 -14.125 10.195 -14.125 10.875 C-15.53652344 10.96587891 -15.53652344 10.96587891 -16.9765625 11.05859375 C-18.22179687 11.14238281 -19.46703125 11.22617187 -20.75 11.3125 C-21.97976562 11.39371094 -23.20953125 11.47492187 -24.4765625 11.55859375 C-27.71036682 11.83904145 -30.92322226 12.34137038 -34.125 12.875 C-34.785 8.585 -35.445 4.295 -36.125 -0.125 C-27.07790587 -6.15639609 -9.28392035 -4.91501665 0 0 Z " fill="#E6FDF5" transform="translate(203.125,34.125)"/>
<path d="M0 0 C2 2 2 2 2.24050903 4.822052 C2.23606781 6.02562347 2.23162659 7.22919495 2.22705078 8.46923828 C2.22734283 9.13277313 2.22763489 9.79630798 2.22793579 10.47994995 C2.22654056 12.67686972 2.21097067 14.87345186 2.1953125 17.0703125 C2.19158305 18.59202896 2.18873576 20.11374781 2.18673706 21.63546753 C2.17909523 25.64356092 2.15944213 29.6515097 2.1373291 33.6595459 C2.11688244 37.74827112 2.10773788 41.83701966 2.09765625 45.92578125 C2.07619667 53.95058724 2.04205421 61.97527564 2 70 C-1.63 70 -5.26 70 -9 70 C-9 47.23 -9 24.46 -9 1 C-8.67 1 -8.34 1 -8 1 C-8 23.11 -8 45.22 -8 68 C-5.36 68 -2.72 68 0 68 C0 45.56 0 23.12 0 0 Z " fill="#EAFCF7" transform="translate(462,25)"/>
<path d="M0 0 C1.63525391 1.52270508 1.63525391 1.52270508 3 3 C2.42032471 3.01458252 1.84064941 3.02916504 1.2434082 3.04418945 C-1.40087553 3.11898528 -4.04394002 3.21553898 -6.6875 3.3125 C-7.59951172 3.33505859 -8.51152344 3.35761719 -9.45117188 3.38085938 C-15.57038475 3.62562789 -19.30623303 4.31217954 -23.76953125 8.765625 C-25.43280603 11.78592079 -25.51611307 14.32226132 -25.6875 17.75 C-25.75324219 18.92046875 -25.81898438 20.0909375 -25.88671875 21.296875 C-25.92410156 22.18890625 -25.96148437 23.0809375 -26 24 C-25.34 24 -24.68 24 -24 24 C-23.773125 24.763125 -23.54625 25.52625 -23.3125 26.3125 C-21.64058461 29.7359458 -20.50061679 30.51037583 -17 32 C-13.94193972 32.50967671 -11.08478179 32.80847458 -8 33 C-7.31599121 33.04366699 -6.63198242 33.08733398 -5.92724609 33.13232422 C-0.95280004 33.44726996 4.02284869 33.73142812 9 34 C5.19537304 36.49989887 1.26950223 36.34609711 -3.125 36.3125 C-3.88329102 36.30686035 -4.64158203 36.3012207 -5.42285156 36.29541016 C-11.86497119 36.15655952 -18.42740983 35.88359064 -23.640625 31.67578125 C-27.14943475 27.83423954 -28.96343749 23.79703188 -29.03125 18.609375 C-28.69897702 13.06041631 -27.77002258 9.29363682 -24 5 C-17.81207877 0.04966302 -7.68735631 -1.29047678 0 0 Z " fill="#E9FCF4" transform="translate(191,52)"/>
<path d="M0 0 C-3.08809695 1.76462683 -4.23312136 2 -8 2 C-8.05109258 9.59477841 -8.08589701 17.1895118 -8.10986328 24.78442383 C-8.11986423 27.36321672 -8.13346932 29.94199844 -8.15087891 32.52075195 C-8.17538853 36.24693577 -8.18654254 39.97296847 -8.1953125 43.69921875 C-8.20563507 44.8351799 -8.21595764 45.97114105 -8.22659302 47.14152527 C-8.74684338 60.47157317 -8.74684338 60.47157317 -4.11013794 72.30741882 C-0.73761096 75.0125859 2.01356354 75.11670697 6.1875 75.0625 C7.08855469 75.05347656 7.98960938 75.04445313 8.91796875 75.03515625 C9.60503906 75.02355469 10.29210937 75.01195313 11 75 C11.33 72.36 11.66 69.72 12 67 C10.68 66.67 9.36 66.34 8 66 C8 65.34 8 64.68 8 64 C11.465 64.495 11.465 64.495 15 65 C14.43393721 69.69023454 13.81462495 74.34500026 13 79 C5.93863048 79.45072571 0.05557171 77.95036492 -5.9375 74.125 C-9.95277085 69.98805427 -10.24814728 65.88310374 -10.22705078 60.28198242 C-10.22734283 59.62776306 -10.22763489 58.9735437 -10.22793579 58.29949951 C-10.22654982 56.15135121 -10.21102371 54.00355596 -10.1953125 51.85546875 C-10.19157975 50.3604603 -10.18873402 48.8654494 -10.18673706 47.37043762 C-10.17912118 43.44622986 -10.15949041 39.52217145 -10.1373291 35.59802246 C-10.11682649 31.5894574 -10.10772592 27.58086807 -10.09765625 23.57226562 C-10.07624245 15.71477541 -10.04213138 7.85740631 -10 0 C-3.48214286 -1.20535714 -3.48214286 -1.20535714 0 0 Z " fill="#EAFCF4" transform="translate(112,9)"/>
<path d="M0 0 C5.28 0 10.56 0 16 0 C16 17.82 16 35.64 16 54 C15.67 54 15.34 54 15 54 C14.67 37.17 14.34 20.34 14 3 C10.04 2.67 6.08 2.34 2 2 C2 17.51 2 33.02 2 49 C1.01 49.495 1.01 49.495 0 50 C0 33.5 0 17 0 0 Z " fill="#DDFDF0" transform="translate(281,32)"/>
<path d="M0 0 C0.66 0 1.32 0 2 0 C2.66 1.65 3.32 3.3 4 5 C3.2575 5.020625 2.515 5.04125 1.75 5.0625 C-1.73383287 6.2501703 -2.17757045 7.86799373 -3.77734375 11.03515625 C-5.65744007 14.0565251 -8.24419264 16.0423193 -10.96875 18.2890625 C-12.897726 19.91385382 -14.63185286 21.61744931 -16.375 23.4375 C-19 26 -19 26 -21 26 C-19.47444034 30.81122847 -19.47444034 30.81122847 -16 34 C-16 33.34 -16 32.68 -16 32 C-15.01 31.67 -14.02 31.34 -13 31 C-12.67 30.01 -12.34 29.02 -12 28 C-10.66666667 27.66666667 -9.33333333 27.33333333 -8 27 C-7.67 26.01 -7.34 25.02 -7 24 C-6.34 24.33 -5.68 24.66 -5 25 C-6.51761303 28.82852379 -8.79343415 30.73321866 -12 33.25 C-12.886875 33.95640625 -13.77375 34.6628125 -14.6875 35.390625 C-17 37 -17 37 -19 37 C-19.83848804 35.54462432 -20.67063934 34.08559627 -21.5 32.625 C-21.9640625 31.81289063 -22.428125 31.00078125 -22.90625 30.1640625 C-24 28 -24 28 -24 26 C-22.49609375 24.51953125 -22.49609375 24.51953125 -20.4375 22.8125 C-13.20171782 16.6176549 -7.44793828 10.13609242 -1.91796875 2.37890625 C-1.28503906 1.59386719 -0.65210938 0.80882813 0 0 Z " fill="#EEFDF7" transform="translate(457,0)"/>
<path d="M0 0 C-1.96466413 1.06775224 -3.96855359 2.06553465 -6 3 C-6.66 2.67 -7.32 2.34 -8 2 C-8 23.78 -8 45.56 -8 68 C-10 66 -10 66 -10.24050903 63.25387573 C-10.23606781 62.08583405 -10.23162659 60.91779236 -10.22705078 59.71435547 C-10.22734283 59.07032776 -10.22763489 58.42630005 -10.22793579 57.76275635 C-10.22654074 55.63076373 -10.21097174 53.49911918 -10.1953125 51.3671875 C-10.19158298 49.89031159 -10.18873572 48.41343322 -10.18673706 46.93655396 C-10.17909574 43.04682602 -10.15944308 39.15724712 -10.1373291 35.26757812 C-10.11688135 31.29949968 -10.10773764 27.33139718 -10.09765625 23.36328125 C-10.07619756 15.57545284 -10.04205572 7.78774729 -10 0 C-3.48214286 -1.20535714 -3.48214286 -1.20535714 0 0 Z " fill="#DCF8ED" transform="translate(144,9)"/>
<path d="M0 0 C1.9519043 -0.35644531 1.9519043 -0.35644531 4.32421875 -0.328125 C5.18853516 -0.32296875 6.05285156 -0.3178125 6.94335938 -0.3125 C7.84892578 -0.291875 8.75449219 -0.27125 9.6875 -0.25 C11.0168457 -0.24226563 11.0168457 -0.24226563 12.37304688 -0.234375 C17.34011099 -0.17554967 22.10291019 0.16930351 27 1 C27 1.33 27 1.66 27 2 C18.42 2 9.84 2 1 2 C0.01 5.96 -0.98 9.92 -2 14 C-2.66 15.32 -3.32 16.64 -4 18 C-9.61 18 -15.22 18 -21 18 C-20.28400038 12.98800263 -19.80796094 9.96713382 -17.9375 5.5625 C-17.57527344 4.69753906 -17.21304687 3.83257812 -16.83984375 2.94140625 C-16.56269531 2.30074219 -16.28554688 1.66007812 -16 1 C-14.85369764 4.43890708 -15.17851188 5.20691343 -16.375 8.5 C-16.65085937 9.2734375 -16.92671875 10.046875 -17.2109375 10.84375 C-17.47132812 11.5553125 -17.73171875 12.266875 -18 13 C-18.33 13.99 -18.66 14.98 -19 16 C-14.38 16 -9.76 16 -5 16 C-4.54625 13.916875 -4.0925 11.83375 -3.625 9.6875 C-2.78262095 5.82021436 -2.20665404 3.30998105 0 0 Z " fill="#E6FDF5" transform="translate(45,69)"/>
<path d="M0 0 C1.32 0 2.64 0 4 0 C5.00419637 2.4566947 6.00350501 4.91518353 7 7.375 C7.28617188 8.07367188 7.57234375 8.77234375 7.8671875 9.4921875 C10 14.7734375 10 14.7734375 10 17 C11.32 17.33 12.64 17.66 14 18 C13.34 18 12.68 18 12 18 C12.33 20.31 12.66 22.62 13 25 C10.72108967 26.13945516 9.43217896 26.12894214 6.90234375 26.1328125 C6.10119141 26.13410156 5.30003906 26.13539062 4.47460938 26.13671875 C3.63736328 26.13285156 2.80011719 26.12898438 1.9375 26.125 C1.09638672 26.12886719 0.25527344 26.13273437 -0.61132812 26.13671875 C-6.87337318 26.12662682 -6.87337318 26.12662682 -8 25 C-8.04063832 23.33382885 -8.042721 21.66611905 -8 20 C-7.34 20 -6.68 20 -6 20 C-5.9071875 18.6696875 -5.9071875 18.6696875 -5.8125 17.3125 C-4.98613487 11.25248902 -2.29198883 5.62425304 0 0 Z M1 2 C-0.17430074 5.2681432 -1.33811256 8.53992515 -2.5 11.8125 C-3.00080078 13.2056543 -3.00080078 13.2056543 -3.51171875 14.62695312 C-3.82753906 15.51962891 -4.14335938 16.41230469 -4.46875 17.33203125 C-4.76201172 18.15421143 -5.05527344 18.9763916 -5.35742188 19.82348633 C-6.14157525 22.10130654 -6.14157525 22.10130654 -6 25 C-0.39 25 5.22 25 11 25 C8.89379589 17.46200635 6.50474634 10.02105949 3 3 C2.34 2.67 1.68 2.34 1 2 Z " fill="#ECFDF6" transform="translate(57,33)"/>
<path d="M0 0 C1.98 0.99 1.98 0.99 4 2 C4 2.66 4 3.32 4 4 C4.66 4 5.32 4 6 4 C7.41015625 5.46875 7.41015625 5.46875 9.0625 7.5 C12.4592511 11.55742996 16.21188342 14.79053392 20.375 18.04296875 C22 20 22 20 21.87890625 22.53125 C20.73797078 25.73601096 18.98170099 28.25118894 17 31 C13.02031425 29.66182195 10.61251238 27.99662286 7.6875 25 C6.99011719 24.29875 6.29273438 23.5975 5.57421875 22.875 C4 21 4 21 4 19 C5.6875 19.125 5.6875 19.125 8 20 C9.66666667 22 11.33333333 24 13 26 C15.16531168 26.94436349 15.16531168 26.94436349 17 27 C17 25.02 17 23.04 17 21 C16.34 20.67 15.68 20.34 15 20 C13.11858921 17.09949171 11.49905891 14.11343005 10 11 C9.01 11 8.02 11 7 11 C7 10.01 7 9.02 7 8 C6.34 8 5.68 8 5 8 C2.11722332 5.55400767 0.54087318 3.78611227 0 0 Z " fill="#EEFDF6" transform="translate(461,6)"/>
<path d="M0 0 C2.37786623 3.56679934 2.22949614 5.03358476 2.17944336 9.25976562 C2.16960922 10.55120483 2.15977509 11.84264404 2.14964294 13.17321777 C2.139783 13.8629216 2.12992306 14.55262543 2.11976433 15.26322937 C2.08960367 17.42344555 2.07279507 19.58339152 2.05970764 21.74377441 C2.01994756 27.88521648 1.95480586 34.02633189 1.88354492 40.16748047 C1.84086379 43.92507868 1.81274779 47.68256724 1.79324532 51.44035339 C1.7826694 52.87254772 1.76626195 54.30471121 1.74394035 55.73677063 C1.7127961 57.73776019 1.70151645 59.73902925 1.69116211 61.74023438 C1.67846786 62.87924194 1.66577362 64.01824951 1.6526947 65.19177246 C1.76472789 68.00414817 1.76472789 68.00414817 3.38258362 69.8482666 C5.23129714 71.16470257 6.77614961 71.61657752 9 72 C9 72.66 9 73.32 9 74 C15.08408472 74.19814261 15.08408472 74.19814261 21 73 C21 74.32 21 75.64 21 77 C14.04102433 77.45384624 7.10267214 76.34592284 1.4375 72.0625 C-1.33818556 68.07999464 -1.10336374 64.24028863 -1.02172852 59.48730469 C-1.01212097 58.84298492 -1.00251343 58.19866516 -0.99261475 57.53482056 C-0.95974041 55.41372346 -0.91936464 53.29283985 -0.87890625 51.171875 C-0.8545938 49.69786319 -0.83075081 48.22384358 -0.80735779 46.74981689 C-0.7446287 42.87653685 -0.67553064 39.0033957 -0.60510254 35.13024902 C-0.53431794 31.17543851 -0.46956164 27.22052978 -0.40429688 23.265625 C-0.27542866 15.51030802 -0.13983139 7.75512788 0 0 Z " fill="#EEFDF7" transform="translate(136,11)"/>
<path d="M0 0 C0 0.66 0 1.32 0 2 C-0.62648437 2.04898438 -1.25296875 2.09796875 -1.8984375 2.1484375 C-2.71570313 2.22320312 -3.53296875 2.29796875 -4.375 2.375 C-5.18710938 2.44460937 -5.99921875 2.51421875 -6.8359375 2.5859375 C-9.20334191 2.82892588 -9.20334191 2.82892588 -11 5 C-11.2500773 7.54190002 -11.2500773 7.54190002 -11 10 C-9.12175109 11.87824891 -5.96064724 11.39102397 -3.4375 11.5625 C-2.23996094 11.64628906 -1.04242188 11.73007813 0.19140625 11.81640625 C1.11824219 11.87699219 2.04507813 11.93757813 3 12 C3 8.7 3 5.4 3 2 C3.33 2 3.66 2 4 2 C4 6.29 4 10.58 4 15 C-8.00763359 15.60644614 -8.00763359 15.60644614 -12.375 12.9375 C-14 10 -14 10 -14.125 6.375 C-13 3 -13 3 -10.9375 1.0625 C-7.07163509 -0.33579156 -4.09806991 -0.20837644 0 0 Z " fill="#E9FCF6" transform="translate(191,62)"/>
<path d="M0 0 C0.33 0 0.66 0 1 0 C1.33 17.16 1.66 34.32 2 52 C-3.28 52 -8.56 52 -14 52 C-14 50.35 -14 48.7 -14 47 C-13.01 46.505 -13.01 46.505 -12 46 C-11.67 46.99 -11.34 47.98 -11 49 C-7.37 49.33 -3.74 49.66 0 50 C0 33.5 0 17 0 0 Z " fill="#EEFEF8" transform="translate(295,35)"/>
<path d="M0 0 C2 1 2 1 3.125 4.0625 C3.41375 5.031875 3.7025 6.00125 4 7 C9.15171623 7.09038099 13.91913204 6.84681133 19 6 C21.3992233 10.64849515 21.19957409 14.91086074 21 20 C20.34 20 19.68 20 19 20 C17.82316374 16.32238669 17.96421654 12.83330292 18 9 C17.03578125 9.04640625 16.0715625 9.0928125 15.078125 9.140625 C13.81484375 9.17671875 12.5515625 9.2128125 11.25 9.25 C9.37054688 9.31960937 9.37054688 9.31960937 7.453125 9.390625 C4 9 4 9 1.5625 7.15625 C-0.31908139 4.55966769 -0.34862701 3.13764313 0 0 Z " fill="#E7FCF3" transform="translate(325,66)"/>
<path d="M0 0 C2.58148508 0.35606691 3.82045747 0.83328193 5.75 2.625 C7.4788573 5.90982887 7.32710355 8.33644028 7 12 C5.81232145 15.38031589 5.10174775 15.93216817 2 18 C-0.375 18.265625 -0.375 18.265625 -3 18.25 C-3.86625 18.25515625 -4.7325 18.2603125 -5.625 18.265625 C-8 18 -8 18 -11 16 C-11 15.01 -11 14.02 -11 13 C-10.34 13 -9.68 13 -9 13 C-9 13.66 -9 14.32 -9 15 C-7.37509046 15.02698189 -5.75005367 15.04638757 -4.125 15.0625 C-2.76761719 15.07990234 -2.76761719 15.07990234 -1.3828125 15.09765625 C1.0168585 15.16249257 1.0168585 15.16249257 3 14 C4.28724928 8.99223319 4.28724928 8.99223319 3.16796875 4.13671875 C1.9696492 2.30629364 1.9696492 2.30629364 0 0 Z " fill="#E9FDF5" transform="translate(292,9)"/>
<path d="M0 0 C0.66 1.32 1.32 2.64 2 4 C1 5 1 5 -2.05102539 5.11352539 C-3.39991271 5.11336634 -4.74880614 5.10767612 -6.09765625 5.09765625 C-7.16094398 5.09553383 -7.16094398 5.09553383 -8.24571228 5.09336853 C-10.51801712 5.08775443 -12.79022475 5.07519963 -15.0625 5.0625 C-16.59960796 5.05748681 -18.13671745 5.05292359 -19.67382812 5.04882812 C-23.44925642 5.03778042 -27.22461171 5.02050641 -31 5 C-31 4.34 -31 3.68 -31 3 C-20.77 3 -10.54 3 0 3 C0 2.01 0 1.02 0 0 Z " fill="#E5FBF3" transform="translate(402,60)"/>
<path d="M0 0 C2.77966434 1.36637509 3.88428085 2.56692298 6 5 C6.375 8.3125 6.375 8.3125 6 11 C4 8 4 8 3.5625 5.875 C3.376875 5.25625 3.19125 4.6375 3 4 C-1.52741172 2.49086276 -6.06426798 2.22570719 -10.5 4 C-10.995 4.33 -11.49 4.66 -12 5 C-12 4.01 -12 3.02 -12 2 C-8.29491822 -0.47005452 -4.2978302 -0.79863894 0 0 Z " fill="#E8FCF3" transform="translate(383,43)"/>
<path d="M0 0 C0.66 0 1.32 0 2 0 C1.37748914 3.61185991 0.39374524 6.8004941 -1 10.1875 C-1.350625 11.04730469 -1.70125 11.90710938 -2.0625 12.79296875 C-2.66612099 14.21399316 -3.30954092 15.61908185 -4 17 C-4.66 17 -5.32 17 -6 17 C-4.89061647 10.69403048 -3.06802099 5.62470514 0 0 Z " fill="#EBFCF5" transform="translate(37,48)"/>
<path d="M0 0 C0.66 0 1.32 0 2 0 C2 6.6 2 13.2 2 20 C1.01 19.67 0.02 19.34 -1 19 C-1.02683987 16.02077407 -1.04676037 13.04178705 -1.0625 10.0625 C-1.07087891 9.21236328 -1.07925781 8.36222656 -1.08789062 7.48632812 C-1.09111328 6.67744141 -1.09433594 5.86855469 -1.09765625 5.03515625 C-1.10289307 4.2862915 -1.10812988 3.53742676 -1.11352539 2.76586914 C-1 1 -1 1 0 0 Z " fill="#EDFEFA" transform="translate(323,46)"/>
<path d="M0 0 C0 4.29 0 8.58 0 13 C-0.33 13 -0.66 13 -1 13 C-1.33 9.7 -1.66 6.4 -2 3 C-6.455 3.495 -6.455 3.495 -11 4 C-11.33 3.34 -11.66 2.68 -12 2 C-10.37787941 1.47026689 -8.75218416 0.95146893 -7.125 0.4375 C-6.22007812 0.14746094 -5.31515625 -0.14257812 -4.3828125 -0.44140625 C-2 -1 -2 -1 0 0 Z " fill="#DEF8EB" transform="translate(326,17)"/>
<path d="M0 0 C2 2.0625 2 2.0625 3 4 C2.67 4.66 2.34 5.32 2 6 C1.360625 5.360625 0.72125 4.72125 0.0625 4.0625 C-3.91930882 1.38087365 -7.294792 1.20501996 -12 1 C-7.82573589 -1.4093068 -4.57104151 -1.3878109 0 0 Z " fill="#E4FDF5" transform="translate(250,44)"/>
<path d="M0 0 C0.99 0 1.98 0 3 0 C3.66 3.3 4.32 6.6 5 10 C4.34 10 3.68 10 3 10 C0 3.375 0 3.375 0 0 Z " fill="#E4FBF2" transform="translate(74,76)"/>
<path d="M0 0 C0.99 0 1.98 0 3 0 C2.34 2.97 1.68 5.94 1 9 C0.67 9 0.34 9 0 9 C0 6.03 0 3.06 0 0 Z " fill="#E3FBF0" transform="translate(156,74)"/>
<path d="M0 0 C0.66 0 1.32 0 2 0 C2.99 2.97 3.98 5.94 5 9 C4.34 9 3.68 9 3 9 C2.34 7.02 1.68 5.04 1 3 C0.34 3 -0.32 3 -1 3 C-0.67 2.01 -0.34 1.02 0 0 Z " fill="#EFFDF8" transform="translate(191,44)"/>
<path d="M0 0 C-3.96 1.32 -7.92 2.64 -12 4 C-12 3.34 -12 2.68 -12 2 C-7.58416436 -0.94389043 -5.16552273 -1.29138068 0 0 Z " fill="#E0FAEE" transform="translate(181,54)"/>
</svg>
